<?xml version="1.0" standalone="no"?>
<!DOCTYPE svg PUBLIC "-//W3C//DTD SVG 20010904//EN"
 "http://www.w3.org/TR/2001/REC-SVG-20010904/DTD/svg10.dtd">
<svg version="1.0" xmlns="http://www.w3.org/2000/svg"
 width="700.000000pt" height="700.000000pt" viewBox="0 0 700.000000 700.000000"
 preserveAspectRatio="xMidYMid meet">
<metadata>
Created by potrace 1.14, written by Peter Selinger 2001-2017
</metadata>
<g transform="translate(0.000000,700.000000) scale(0.100000,-0.100000)"
fill="#000000" stroke="none">
<path d="M3237 6739 l-257 -259 257 -259 258 -259 260 259 260 259 -260 259
-260 258 -258 -258z"/>
<path d="M1376 4877 l-1380 -1378 1750 -1749 1749 -1750 1751 1750 1750 1749
-633 633 -633 633 -742 -742 c-409 -408 -747 -746 -751 -750 -4 -4 -59 44
-122 107 l-114 114 378 378 378 379 -254 254 c-141 140 -258 255 -262 255 -8
0 -1271 -1258 -1271 -1266 0 -3 284 -290 631 -637 l630 -631 750 752 750 751
115 -115 114 -115 -1231 -1231 -1231 -1231 -114 114 -114 113 33 34 c17 18
182 183 364 365 183 183 333 336 333 340 0 4 -115 123 -256 264 l-256 256
-364 -364 c-200 -200 -367 -365 -371 -366 -5 -2 -393 382 -863 852 l-855 855
1120 1120 1120 1120 -260 258 -260 258 -1379 -1379z"/>
<path d="M3230 5249 c-553 -555 -1006 -1011 -1007 -1012 -1 -2 114 -119 255
-260 l258 -258 749 751 c413 412 753 750 756 750 4 0 173 -166 376 -370 l370
-370 245 245 c136 135 252 253 259 261 11 13 -77 105 -617 645 -346 346 -631
629 -634 628 -3 0 -457 -455 -1010 -1010z"/>
<path d="M1732 3752 l-254 -255 259 -259 259 -259 254 256 c140 140 257 257
259 260 5 6 -506 515 -516 514 -4 -1 -122 -116 -261 -257z"/>
<path d="M2484 3009 l-259 -259 260 -260 260 -259 259 259 258 259 -260 259
-259 260 -259 -259z"/>
</g>
</svg>
