<?xml version="1.0" encoding="UTF-8" standalone="no"?>
<!DOCTYPE svg PUBLIC "-//W3C//DTD SVG 1.1//EN" "http://www.w3.org/Graphics/SVG/1.1/DTD/svg11.dtd">
<svg width="100%" height="100%" viewBox="0 0 300 300" version="1.1" xmlns="http://www.w3.org/2000/svg" xmlns:xlink="http://www.w3.org/1999/xlink" xml:space="preserve" xmlns:serif="http://www.serif.com/" style="fill-rule:evenodd;clip-rule:evenodd;stroke-linejoin:round;stroke-miterlimit:2;">
    <g transform="matrix(0.59226,-0.59226,0.59226,0.59226,-21.0361,156.784)">
        <g>
            <g transform="matrix(-8.56699e-16,-5.8035,3.98558,-5.09109e-16,-231.626,465.615)">
                <rect x="53.17" y="90.885" width="6.455" height="23.128" style="fill:rgb(203,60,51);"/>
            </g>
            <g transform="matrix(-8.12037e-16,-5.8035,6.31016,-8.8293e-16,-442.896,519.669)">
                <rect x="53.17" y="90.885" width="6.455" height="23.128" style="fill:rgb(203,60,51);"/>
            </g>
            <g transform="matrix(5.8035,-7.32059e-16,1.26932e-15,3.95702,-177.965,-240.054)">
                <rect x="53.17" y="90.885" width="6.455" height="23.128" style="fill:rgb(203,60,51);"/>
            </g>
            <g transform="matrix(5.8035,-7.32059e-16,1.26932e-15,3.95702,-69.4876,-185.994)">
                <rect x="53.17" y="90.885" width="6.455" height="23.128" style="fill:rgb(203,60,51);"/>
            </g>
            <g transform="matrix(-7.23023e-16,-5.8035,10.9431,-1.62797e-15,-971.118,573.728)">
                <rect x="53.17" y="90.885" width="6.455" height="23.128" style="fill:rgb(203,60,51);"/>
            </g>
            <g transform="matrix(5.8035,5.53125e-16,1.78781e-15,10.9412,-285.117,-982.332)">
                <rect x="53.17" y="90.885" width="6.455" height="23.128" style="fill:rgb(203,60,51);"/>
            </g>
        </g>
        <g>
            <g transform="matrix(1.65978e-15,5.8035,-3.92866,8.01239e-16,471.373,-134.936)">
                <rect x="53.17" y="90.885" width="6.455" height="23.128" style="fill:rgb(64,99,216);"/>
            </g>
            <g transform="matrix(1,0,0,1,-0.530129,0.0364289)">
                <g transform="matrix(5.8035,-2.99966e-16,1.26932e-15,1.62141,-231.188,-81.7883)">
                    <rect x="53.17" y="90.885" width="6.455" height="23.128" style="fill:rgb(64,99,216);"/>
                </g>
                <g transform="matrix(5.8035,-2.99966e-16,1.26932e-15,1.62141,-231.188,-27.7029)">
                    <rect x="53.17" y="90.885" width="6.455" height="23.128" style="fill:rgb(64,99,216);"/>
                </g>
            </g>
            <g transform="matrix(5.8035,-1.59214e-15,2.43276e-15,8.60605,-285.117,-770.106)">
                <rect x="53.17" y="90.885" width="6.455" height="23.128" style="fill:rgb(64,99,216);"/>
            </g>
        </g>
        <g transform="matrix(1.67865e-15,5.8035,-8.62774,2.13238e-15,1007.13,-296.513)">
            <rect x="53.17" y="90.885" width="6.455" height="23.128" style="fill:rgb(64,99,216);"/>
        </g>
        <g>
            <g transform="matrix(5.8035,-2.99966e-16,1.26932e-15,1.62141,-69.4876,-135.341)">
                <rect x="53.17" y="90.885" width="6.455" height="23.128" style="fill:rgb(39,119,24);"/>
            </g>
            <g transform="matrix(7.43784e-16,5.8035,-6.31957,2.18568e-15,850.902,-242.923)">
                <rect x="53.17" y="90.885" width="6.455" height="23.128" style="fill:rgb(39,119,24);"/>
            </g>
            <g transform="matrix(-5.8035,9.53614e-16,-2.28267e-15,-3.95179,585.466,516.204)">
                <rect x="53.17" y="90.885" width="6.455" height="23.128" style="fill:rgb(39,119,24);"/>
            </g>
        </g>
    </g>
</svg>
